<svg xmlns="http://www.w3.org/2000/svg" width="1200" height="360" viewBox="0 0 1200 360" role="img" aria-labelledby="title desc">
  <title id="title">agent-visual-diff</title>
  <desc id="desc">Deterministic visual diffs for coding agents.</desc>
  <rect width="1200" height="360" rx="28" fill="#0b0b0c"/>
  <g fill="none" stroke="#2c2c30" stroke-width="2">
    <rect x="70" y="66" width="390" height="228" rx="18"/>
    <rect x="740" y="66" width="390" height="228" rx="18"/>
  </g>
  <g fill="#1a1a1e">
    <rect x="102" y="102" width="168" height="18" rx="9"/>
    <rect x="102" y="138" width="304" height="12" rx="6"/>
    <rect x="102" y="164" width="260" height="12" rx="6"/>
    <rect x="102" y="214" width="118" height="42" rx="10"/>
    <rect x="772" y="102" width="168" height="18" rx="9"/>
    <rect x="772" y="138" width="304" height="12" rx="6"/>
    <rect x="772" y="164" width="260" height="12" rx="6"/>
    <rect x="772" y="214" width="118" height="42" rx="10"/>
  </g>
  <rect x="764" y="94" width="204" height="36" rx="9" fill="none" stroke="#f4f4f5" stroke-width="3"/>
  <rect x="764" y="204" width="140" height="62" rx="12" fill="none" stroke="#f4f4f5" stroke-width="3"/>
  <path d="M500 180h200" stroke="#6b6b73" stroke-width="2"/>
  <path d="M674 166l26 14-26 14" fill="none" stroke="#f4f4f5" stroke-width="3" stroke-linecap="round" stroke-linejoin="round"/>
  <g font-family="ui-monospace, SFMono-Regular, Menlo, Monaco, Consolas, monospace" fill="#f4f4f5">
    <text x="600" y="43" font-size="16" text-anchor="middle" letter-spacing="3">AGENT VISUAL DIFF</text>
    <text x="600" y="326" font-size="15" text-anchor="middle" fill="#9a9aa1">pixels → regions → compact JSON → fix → rerun</text>
  </g>
</svg>
